<svg xmlns="http://www.w3.org/2000/svg" viewBox="0 0 72 72" width="300" height="300" version="1.1" xmlns:xlink="http://www.w3.org/1999/xlink" xmlns:svgjs="http://svgjs.dev/svgjs"><g width="100%" height="100%" transform="matrix(1,0,0,1,0,0)"><g id="Layer_25" data-name="Layer 25"><path d="M17,17a4.00427,4.00427,0,0,1-4-4V7a4,4,0,0,1,8,0V9H33a1,1,0,0,1,0,2H20a.99974.99974,0,0,1-1-1V7a2,2,0,0,0-4,0v6a2.00229,2.00229,0,0,0,2,2,1,1,0,0,1,0,2Z" fill="#0b1f3a" fill-opacity="1" data-original-color="#000000ff" stroke="none" stroke-opacity="1"/><path d="M4,51a.99974.99974,0,0,1-1-1V14A5.00588,5.00588,0,0,1,8,9h6a1,1,0,0,1,0,2H8a3.00328,3.00328,0,0,0-3,3V50A.99974.99974,0,0,1,4,51Z" fill="#0b1f3a" fill-opacity="1" data-original-color="#000000ff" stroke="none" stroke-opacity="1"/><path d="M65.35,60.41a.9792.9792,0,0,1,.14.89,10.99979,10.99979,0,0,1-20.74.7H27.25a10.99979,10.99979,0,0,1-20.74-.7.9792.9792,0,0,1,.14-.89A.99957.99957,0,0,1,7.46,60h8.13l2-2-2-2H7.46a.99963.99963,0,0,1-.81-.41.97908.97908,0,0,1-.14-.89A10.99979,10.99979,0,0,1,27.25,54h17.5a10.99979,10.99979,0,0,1,20.74.7.97908.97908,0,0,1-.14.89.99963.99963,0,0,1-.81.41H56.41l-2,2,2,2h8.13A.99957.99957,0,0,1,65.35,60.41Z" fill="#0b1f3a" fill-opacity="1" data-original-color="#000000ff" stroke="none" stroke-opacity="1"/><path d="M64,9H59V7a4,4,0,0,0-8,0V9H40V7a4,4,0,0,0-8,0v6a4.00427,4.00427,0,0,0,4,4,1,1,0,0,0,0-2,2.00229,2.00229,0,0,1-2-2V7a2,2,0,0,1,4,0v3a.99974.99974,0,0,0,1,1H51v2a4.00427,4.00427,0,0,0,4,4,1,1,0,0,0,0-2,2.00229,2.00229,0,0,1-2-2V7a2,2,0,0,1,4,0v3a.99974.99974,0,0,0,1,1h6a3.00328,3.00328,0,0,1,3,3v8H65a.99974.99974,0,0,0-1-1H63a.99974.99974,0,0,0-1,1H60a.99974.99974,0,0,0-1-1H51a.99974.99974,0,0,0-1,1H48a1.003,1.003,0,0,0-1-1H5a1.003,1.003,0,0,0-1,1V51H6.04A13.03579,13.03579,0,0,1,24,47.03V23h2V48.59A12.75066,12.75066,0,0,1,27.96,51H44.04A12.75066,12.75066,0,0,1,46,48.59V23h2V47.03A12.94161,12.94161,0,0,1,55,45H51a1,1,0,0,1,0-2H65a1,1,0,0,1,0,2H55a12.93169,12.93169,0,0,1,10.95,6H67a1,1,0,0,0,2,0V14A5.00588,5.00588,0,0,0,64,9ZM43,42H29a1,1,0,0,1,0-2H43a1,1,0,0,1,0,2Zm0-3H29a1,1,0,0,1,0-2H43a1,1,0,0,1,0,2Zm0-3H29a1,1,0,0,1,0-2H43a1,1,0,0,1,0,2ZM21,33H9a1,1,0,0,1,0-2H21a1,1,0,0,1,0,2Zm0-3H9a1,1,0,0,1,0-2H21a1,1,0,0,1,0,2Zm0-3H9a1,1,0,0,1,0-2H21a1,1,0,0,1,0,2Z" fill="#0b1f3a" fill-opacity="1" data-original-color="#000000ff" stroke="none" stroke-opacity="1"/></g></g></svg>